<svg id="Vrstva_1" data-name="Vrstva 1" xmlns="http://www.w3.org/2000/svg" viewBox="0 0 340.1 379.73"><defs><style>.cls-1{fill:#4a6056;}.cls-2{fill:#189f8e;}.cls-3,.cls-4{fill:#bfc935;}.cls-4{font-size:44px;font-family:BritannicBold, Britannic Bold;}</style></defs><title>scrabble-bag</title><path class="cls-1" d="M393.39,126c.68,2.28,1.44,4.62,2.22,7,2.8,8.62,6,18.39,6.46,29.26.24,5.27-.75,9.12-1.79,13.19-1.43,5.58-3,11.91-1.6,22.09,1.63,11.46,1.55,17.66,1.18,20.87-2.84-5.16-7.37-17.82-9.48-39.52-.73-7.53.38-15.32,1.55-23.56,1.07-7.52,2.18-15.29,1.82-23.07q-.13-3.15-.36-6.28m-7.18-49.92c-1.41,11.92,2.55,34.67,3.55,56.38.72,15.65-4.84,31.62-3.36,46.84,2.75,28.26,10.16,45.53,14.46,45.53,3,0,4.52-8.55,1.78-27.83-2.37-16.71,4-21.5,3.43-34.9-.78-17.51-8-31.7-10.5-43.65-6-28.73-9.36-42.37-9.36-42.37Z" transform="translate(-66 -65.93)"/><path class="cls-2" d="M100.5,98.5s-12,96-10,181-11,149-20,151-3,10,5,5,98-10,160,6,120-20,142-10,18-5,12-7,24-134-3-239,12-107-1-110-101,16-202,0-103-8-98-4S101.5,87.5,100.5,98.5Z" transform="translate(-66 -65.93)"/><path class="cls-3" d="M353,235a4.05,4.05,0,0,1,4,4v42a4.05,4.05,0,0,1-4,4H140a4.05,4.05,0,0,1-4-4V239a4.05,4.05,0,0,1,4-4H353m0-8H140a12,12,0,0,0-12,12v42a12,12,0,0,0,12,12H353a12,12,0,0,0,12-12V239a12,12,0,0,0-12-12Z" transform="translate(-66 -65.93)"/><text class="cls-4" transform="translate(79 208.37)">SCRABBLE</text></svg>